<svg xmlns="http://www.w3.org/2000/svg" viewBox="0 0 250.5 130.78"><defs><style>.cls-1{fill:#fcfcfc;stroke-linecap:round;stroke-linejoin:round;}.cls-1,.cls-2{stroke:#000;}.cls-1,.cls-2,.cls-3{stroke-width:5px;}.cls-2,.cls-4{fill:#fff;}.cls-2,.cls-3{stroke-miterlimit:10;}.cls-3,.cls-5{fill:#f41919;}.cls-3{stroke:#fff;}</style></defs><title>Ресурс 1</title><g id="Слой_2" data-name="Слой 2"><g id="Layer_1" data-name="Layer 1"><polyline id="_Контур_" data-name="&lt;Контур&gt;" class="cls-1" points="186.52 27.48 169.97 2.5 55.67 36.08 101.67 113.28 162.67 78.19 187.67 27.82"/><polyline id="_Контур_2" data-name="&lt;Контур&gt;" class="cls-1" points="77.75 73.61 8 112.04 54.7 36.13 100.22 110.12 142.19 41.9 182.09 106.76 248 67.84 217.85 18.84 142.78 39.98"/><g id="_Группа_" data-name="&lt;Группа&gt;"><path id="_Контур_3" data-name="&lt;Контур&gt;" class="cls-2" d="M76.71,21.09a13.72,13.72,0,1,1,27.44,0c0,7.58-13.72,24.19-13.72,24.19S76.71,28.66,76.71,21.09Z"/></g><g id="_Группа_2" data-name="&lt;Группа&gt;"><path id="_Контур_4" data-name="&lt;Контур&gt;" class="cls-2" d="M179.71,58.09a13.72,13.72,0,1,1,27.44,0c0,7.58-13.72,24.19-13.72,24.19S179.71,65.66,179.71,58.09Z"/></g><circle id="_Контур_5" data-name="&lt;Контур&gt;" cx="91" cy="21.28" r="5"/><circle id="_Контур_6" data-name="&lt;Контур&gt;" cx="194" cy="58.28" r="5"/><rect id="_Прямоугольник_" data-name="&lt;Прямоугольник&gt;" class="cls-3" x="2.5" y="65.28" width="63" height="63"/><g id="_Группа_3" data-name="&lt;Группа&gt;"><g id="_Группа_4" data-name="&lt;Группа&gt;"><path id="_Контур_7" data-name="&lt;Контур&gt;" class="cls-4" d="M20.71,91.09a13.72,13.72,0,0,1,27.44,0c0,7.58-13.72,24.19-13.72,24.19S20.71,98.66,20.71,91.09Z"/></g><circle id="_Контур_8" data-name="&lt;Контур&gt;" class="cls-5" cx="34" cy="91.28" r="5"/></g></g></g></svg>