<svg xmlns="http://www.w3.org/2000/svg" viewBox="0 0 211.02 179"><defs><style>.cls-1,.cls-4{fill:#fcfcfc;}.cls-1,.cls-2,.cls-3,.cls-4,.cls-5{stroke:#000;}.cls-1,.cls-2,.cls-6{stroke-miterlimit:10;}.cls-1,.cls-2,.cls-3,.cls-4,.cls-5,.cls-6{stroke-width:5px;}.cls-2,.cls-3,.cls-7{fill:#fff;}.cls-3,.cls-4,.cls-5{stroke-linecap:round;stroke-linejoin:round;}.cls-5{fill:none;}.cls-6{fill:#f41919;stroke:#fff;}</style></defs><title>Ресурс 1</title><g id="Слой_2" data-name="Слой 2"><g id="Layer_1" data-name="Layer 1"><path id="_Контур_" data-name="&lt;Контур&gt;" class="cls-1" d="M40.57,140v11.8c0,12.45,23.89,22.71,55.11,22.71s56.89-9.92,56.89-22.37V138.22"/><path id="_Контур_2" data-name="&lt;Контур&gt;" class="cls-1" d="M40.57,122.28v11.61c0,12.45,23.89,22.71,55.11,22.71s56.89-9.92,56.89-22.37V120.51"/><path id="_Контур_3" data-name="&lt;Контур&gt;" class="cls-1" d="M40.57,95.73v21.84c0,12.45,23.89,22.71,55.11,22.71s56.89-9.92,56.89-22.37V91"/><ellipse id="_Контур_4" data-name="&lt;Контур&gt;" class="cls-2" cx="96.03" cy="96.38" rx="56.53" ry="24.26"/><line id="_Контур_5" data-name="&lt;Контур&gt;" class="cls-3" x1="184.97" y1="25.44" x2="185.5" y2="159.71"/><circle id="_Контур_6" data-name="&lt;Контур&gt;" class="cls-4" cx="96.69" cy="50.08" r="47.58"/><g id="_Группа_" data-name="&lt;Группа&gt;"><path id="_Контур_7" data-name="&lt;Контур&gt;" class="cls-5" d="M93.33,17.5l9.2-.79A16.15,16.15,0,1,1,102.38,49H95.5"/><line id="_Контур_8" data-name="&lt;Контур&gt;" class="cls-4" x1="91" y1="18.5" x2="91" y2="83.5"/><line id="_Контур_9" data-name="&lt;Контур&gt;" class="cls-4" x1="82.5" y1="66" x2="101.5" y2="66"/></g><polyline id="_Контур_10" data-name="&lt;Контур&gt;" class="cls-5" points="165.5 139.92 186.58 161 208.52 139.06"/><polygon id="_Контур_11" data-name="&lt;Контур&gt;" class="cls-6" points="65.5 176.5 2.5 176.5 2.5 113.5 65.5 113.5 65.5 126.5 79 133.5 65.5 144.5 65.5 176.5"/><circle id="_Контур_12" data-name="&lt;Контур&gt;" class="cls-7" cx="19.32" cy="145.31" r="4.82"/><circle id="_Контур_13" data-name="&lt;Контур&gt;" class="cls-7" cx="33.13" cy="145.31" r="4.82"/><circle id="_Контур_14" data-name="&lt;Контур&gt;" class="cls-7" cx="46.94" cy="145.31" r="4.82"/></g></g></svg>