<svg xmlns="http://www.w3.org/2000/svg" viewBox="0 0 255.1 163.93"><defs><style>.cls-1,.cls-3,.cls-6{fill:#fcfcfc;}.cls-1,.cls-2,.cls-3,.cls-4,.cls-5,.cls-6{stroke:#000;}.cls-1,.cls-2,.cls-4,.cls-7,.cls-8{stroke-miterlimit:10;}.cls-1,.cls-2,.cls-3,.cls-4,.cls-7{stroke-width:5px;}.cls-2,.cls-9{fill:#fff;}.cls-3,.cls-5,.cls-6{stroke-linecap:round;stroke-linejoin:round;}.cls-4,.cls-5,.cls-8{fill:none;}.cls-5,.cls-6{stroke-width:4px;}.cls-7{fill:#f41919;}.cls-7,.cls-8{stroke:#fff;}.cls-8{stroke-width:8px;}</style></defs><title>Ресурс 1</title><g id="Слой_2" data-name="Слой 2"><g id="Layer_1" data-name="Layer 1"><path id="_Контур_" data-name="&lt;Контур&gt;" class="cls-1" d="M42.1,96.57c.91-2.42,1.51-5,2.86-7.18,3-4.8,7.83-7.36,13-9.35A5,5,0,0,0,60,78.49c3.2-4.28,6.14-8.78,9.48-13A51.57,51.57,0,0,1,91.08,49.58c12.68-5.19,26.09-6.49,39.59-6.88a167.76,167.76,0,0,1,38.9,3.42c6,1.25,12,2.51,16.79,6.92q13.5,12.59,27.13,25a9.3,9.3,0,0,0,3.81,1.9c6,1.56,12.12,2.68,18,4.5S246.72,89.17,250,94.8c1.38,2.38,1.77,5.37,2.64,8.09v23.75a2.3,2.3,0,0,0-.35.74c-1,5.84-4.24,9.39-10,10.3a71.58,71.58,0,0,1-10.56.39c-1.6,0-2.29.39-2.77,2a23.5,23.5,0,0,1-45.13-.35c-.43-1.47-1.08-1.64-2.34-1.64q-32.91.06-65.77,0c-1.34,0-1.9.39-2.29,1.77-4.72,17-26.61,22.72-39.11,10.21a25.21,25.21,0,0,1-6.58-11.94c-3.89,0-7.7.09-11.51,0a14.13,14.13,0,0,1-10.86-5.24c-2-2.47-2.6-5.37-3.25-8.31Q42.14,110.55,42.1,96.57Z"/><path id="_Контур_2" data-name="&lt;Контур&gt;" class="cls-2" d="M125.38,63.74c-16.31-.1-38.21,8.74-45.52,25h45.52C125.38,80.35,125.38,72,125.38,63.74Z"/><path id="_Контур_3" data-name="&lt;Контур&gt;" class="cls-2" d="M190.31,89.4c-1.6-2.12-11.14-22-26-23a109,109,0,0,0-25-2.51,9.29,9.29,0,0,0-1,.1V89.36C155.91,89.36,173.48,89.36,190.31,89.4Z"/><circle id="_Контур_4" data-name="&lt;Контур&gt;" class="cls-2" cx="91.12" cy="132.21" r="9.93"/><circle id="_Контур_5" data-name="&lt;Контур&gt;" class="cls-2" cx="206.12" cy="132.21" r="9.93"/><path id="_Контур_6" data-name="&lt;Контур&gt;" class="cls-3" d="M117.76,51a20.34,20.34,0,1,1,35.39,1.44"/><path id="_Контур_7" data-name="&lt;Контур&gt;" class="cls-4" d="M164.81,44.31v2.94a5.41,5.41,0,0,1-5.4,5.4H114.23a5.41,5.41,0,0,1-5.4-5.4V44.31"/><path id="_Контур_8" data-name="&lt;Контур&gt;" class="cls-5" d="M133.79,31.32,136.7,31a5.22,5.22,0,0,1-.06,10.43H134.5"/><line id="_Контур_9" data-name="&lt;Контур&gt;" class="cls-6" x1="132.5" y1="31.43" x2="132.5" y2="52.43"/><line id="_Контур_10" data-name="&lt;Контур&gt;" class="cls-6" x1="130.5" y1="47.43" x2="136.5" y2="47.43"/><line id="_Контур_11" data-name="&lt;Контур&gt;" class="cls-4" x1="108.5" y1="1.77" x2="119.83" y2="13.1"/><line id="_Контур_12" data-name="&lt;Контур&gt;" class="cls-4" x1="104.5" y1="10.43" x2="112.5" y2="18.43"/><line id="_Контур_13" data-name="&lt;Контур&gt;" class="cls-1" x1="141.5" y1="104.93" x2="152.5" y2="104.93"/><polyline id="_Контур_14" data-name="&lt;Контур&gt;" class="cls-4" points="250.5 96.93 231.5 96.93 242.17 105.43 252.17 106.43"/><rect id="_Прямоугольник_" data-name="&lt;Прямоугольник&gt;" class="cls-7" x="2.5" y="98.43" width="63" height="63"/><g id="_Группа_" data-name="&lt;Группа&gt;"><line id="_Контур_15" data-name="&lt;Контур&gt;" class="cls-8" x1="43.79" y1="116.96" x2="24.21" y2="141.88"/><circle id="_Контур_16" data-name="&lt;Контур&gt;" class="cls-9" cx="22.43" cy="118.74" r="5.93"/><circle id="_Контур_17" data-name="&lt;Контур&gt;" class="cls-9" cx="45.57" cy="139.5" r="5.93"/></g></g></g></svg>