<svg xmlns="http://www.w3.org/2000/svg" viewBox="0 0 177.8 172"><defs><style>.cls-1{fill:none;}.cls-1,.cls-2,.cls-3{stroke:#000;stroke-linecap:round;stroke-linejoin:round;}.cls-1,.cls-2,.cls-3,.cls-4{stroke-width:5px;}.cls-2,.cls-5{fill:#fff;}.cls-3{fill:#fcfcfc;}.cls-4{fill:#f41919;stroke:#fff;stroke-miterlimit:10;}</style></defs><title>Ресурс 1</title><g id="Слой_2" data-name="Слой 2"><g id="Layer_1" data-name="Layer 1"><polyline id="_Контур_" data-name="&lt;Контур&gt;" class="cls-1" points="2.5 3.37 53.5 2.5 73.5 99.5"/><line id="_Контур_2" data-name="&lt;Контур&gt;" class="cls-2" x1="113.7" y1="133.81" x2="175.3" y2="123.19"/><rect id="_Прямоугольник_" data-name="&lt;Прямоугольник&gt;" class="cls-3" x="80.96" y="15.75" width="82.92" height="100.54" rx="12" ry="12" transform="translate(-10.16 23.97) rotate(-10.74)"/><polyline id="_Контур_3" data-name="&lt;Контур&gt;" class="cls-2" points="108.5 21.5 114.5 51.5 127.5 39.5 140.5 47.5 133.5 15.5"/><line id="_Контур_4" data-name="&lt;Контур&gt;" class="cls-2" x1="130.5" y1="80.5" x2="148.5" y2="77.5"/><line id="_Контур_5" data-name="&lt;Контур&gt;" class="cls-2" x1="153.5" y1="88.5" x2="123.5" y2="92.5"/><rect id="_Прямоугольник_2" data-name="&lt;Прямоугольник&gt;" class="cls-4" x="47.5" y="106.5" width="63" height="63"/><polygon id="_Контур_6" data-name="&lt;Контур&gt;" class="cls-5" points="65.64 124.42 78.46 130.96 88.64 120.78 86.39 135 99.22 141.53 85 143.78 82.75 158 76.21 145.18 61.99 147.43 72.17 137.25 65.64 124.42"/></g></g></svg>