<svg xmlns="http://www.w3.org/2000/svg" viewBox="0 0 90.01 90"><defs><style>.cls-1{fill:#fff;}</style></defs><title>Ресурс 1</title><g id="Слой_2" data-name="Слой 2"><g id="Layer_1" data-name="Layer 1"><path class="cls-1" d="M18,0a3,3,0,0,0-2.12.91L3.5,13.57A13.31,13.31,0,0,0,0,23c0,11.75,8.85,28.1,23.88,43.13S55.25,90,67,90a13.31,13.31,0,0,0,9.44-3.5L89.09,74.16a3,3,0,0,0,.07-4.24l0,0-20-20A3,3,0,0,0,65,49.79L54.69,59.22A68.9,68.9,0,0,1,41.13,48.88,70.6,70.6,0,0,1,30.78,35.35L40.22,25a3,3,0,0,0-.09-4.16l-20-20A3,3,0,0,0,18,0ZM46.69,0A3,3,0,0,0,44,3V29a3,3,0,0,0,3,3h3v5a3,3,0,0,0,5,2.22L63.13,32H87a3,3,0,0,0,3-3V3a3,3,0,0,0-3-3H46.69ZM50,6H84V26H62a3,3,0,0,0-2,.75l-4,3.56V29a3,3,0,0,0-3-3H50ZM18,7.29,33.84,23.1,24.78,33a3,3,0,0,0-.37,3.5A78,78,0,0,0,36.88,53.13a75.55,75.55,0,0,0,16.66,12.5,3,3,0,0,0,3.5-.41l9.88-9.06L82.72,72,72.25,82.19A7.26,7.26,0,0,1,67,84c-8.44,0-24.62-7.87-38.87-22.12S6,31.45,6,23a7.26,7.26,0,0,1,1.81-5.25ZM57,13a3,3,0,1,0,3,3A3,3,0,0,0,57,13Zm10,0a3,3,0,1,0,3,3A3,3,0,0,0,67,13Zm10,0a3,3,0,1,0,3,3A3,3,0,0,0,77,13Z"/></g></g></svg>