<svg xmlns="http://www.w3.org/2000/svg" viewBox="0 0 141 124.01"><defs><style>.cls-1{fill:none;stroke:#fff;stroke-miterlimit:10;stroke-width:11px;}.cls-2{fill:#fff;}</style></defs><title>Asset 1</title><g id="Layer_2" data-name="Layer 2"><g id="Layer_1-2" data-name="Layer 1"><path class="cls-1" d="M13.1,5.51A8.48,8.48,0,0,0,5.5,14V87.47A8.48,8.48,0,0,0,14,95.95h8.48v14.13a8.48,8.48,0,0,0,14.13,6.27l23-20.4H127a8.48,8.48,0,0,0,8.48-8.48V14A8.48,8.48,0,0,0,127,5.51H14A8.48,8.48,0,0,0,13.1,5.51Z"/><circle class="cls-2" cx="42.24" cy="50.73" r="8.48"/><circle class="cls-2" cx="70.5" cy="50.73" r="8.48"/><circle class="cls-2" cx="98.76" cy="50.73" r="8.48"/></g></g></svg>