<svg xmlns="http://www.w3.org/2000/svg" viewBox="0 0 21.28 21.3"><defs><style>.cls-1{fill:none;stroke:#000;stroke-linecap:round;stroke-linejoin:round;stroke-width:1.5px;}</style></defs><title>Asset 1</title><g id="Layer_2" data-name="Layer 2"><g id="Isolation_Mode" data-name="Isolation Mode"><path class="cls-1" d="M.75,10.65q0-3,0-6A3.8,3.8,0,0,1,4,.81,4.28,4.28,0,0,1,4.73.75H16.56a3.82,3.82,0,0,1,3.85,2.9,3.76,3.76,0,0,1,.11.9q0,6.08,0,12.17a3.8,3.8,0,0,1-3.8,3.81q-6.1,0-12.19,0a3.79,3.79,0,0,1-3.78-3.8C.74,14.71.75,12.68.75,10.65Zm9.9-3.48a3.48,3.48,0,1,0,3.47,3.5A3.48,3.48,0,0,0,10.65,7.17ZM15.1,3.85V5.17h1.32V3.85ZM.75,10.65h6.4m7,0h6.41"/><path d="M14.12,10.71A3.47,3.47,0,0,1,7.19,11l-6.94.29c0,1.9,0,3.8,0,5.7A3.68,3.68,0,0,0,4,20.53q6.1,0,12.19,0A3.69,3.69,0,0,0,20,17c0-1.82,0-4.58,0-6.4C20,10.51,17.43,10.58,14.12,10.71Z"/></g></g></svg>